<svg id="Layer_1" data-name="Layer 1" xmlns="http://www.w3.org/2000/svg" viewBox="0 0 64 64"><path d="M47.39,14.57c.4.44.8.9,1.18,1.37,4.64,5.73,7.94,12.93,7.34,20.27-.85,10.45-9.7,19-19.77,22-6,1.73-13.14,1.5-17.68-2.79-2.46-2.33-3.85-5.56-5-8.74A103,103,0,0,1,8.67,28.45C4.28,2.05,32.87-1.28,47.39,14.57Z" style="fill:#cdcece"/><path d="M14.52,17.63a1.08,1.08,0,0,0-.93,1.18C13.92,22,15,31.45,16.12,32.33L38.44,50a3.08,3.08,0,0,0,4.34-.5l8.4-10.62a3.09,3.09,0,0,0-.5-4.34L28.35,16.86C27.24,16,17.7,17.2,14.52,17.63Z" style="fill:#fff;stroke:#787878;stroke-linecap:round;stroke-linejoin:round;stroke-width:2.2536px"/><circle cx="23.49" cy="25.62" r="3.21" style="fill:#787878"/></svg>
