<svg width="24" height="24">
  <g id="Layer_1">
    <path d="M1,1 L9.442,1 L22.585,14.102 L14.101,22.586 L1,9.481 z" fill="green"/>
    <path d="M14.101,24 L0,9.895 L0,0 L9.855,0 L24,14.101 C20.7,17.4 17.4,20.7 14.101,24 z M9.442,1 L1,1 L1,9.481 L14.101,22.586 L22.585,14.102 C18.204,9.734 13.823,5.367 9.442,1 z M7.74,4.204 C8.715,5.18 8.715,6.764 7.74,7.74 C6.764,8.715 5.18,8.715 4.204,7.74 C3.228,6.764 3.228,5.18 4.204,4.204 C5.18,3.228 6.764,3.228 7.74,4.204 z M7.032,4.911 C7.618,5.497 7.618,6.447 7.032,7.032 C6.447,7.618 5.497,7.618 4.911,7.032 C4.326,6.447 4.326,5.497 4.911,4.911 C5.497,4.326 6.447,4.326 7.032,4.911 z" fill="black"/>
  </g>
</svg>
