<?xml version="1.0" encoding="UTF-8" standalone="no"?>
<svg viewBox="0 0 1024 1024" width="1024" height="1024">
  <path
     d="M 224.04762,0 C 171.02132,0 128,43.021329 128,96.047619 V         928.46032 c 0,53.02628 43.02132,96.04758 96.04762,96.04758 h         576.28571 c 53.0263,0 96.04762,-43.0213 96.04762,-96.04758 V         263.93163 c 0,-25.4126 -10.20428,-50.02558 -28.21321,-67.83441         L 700.28373,28.213206 C 682.2748,10.204279 657.86192,0         632.44932,0 Z m 0,96.047619 H 544.20635 V 304.15079 c         0,26.61319 21.41062,48.02381 48.02381,48.02381 H 800.33333 V         928.46032 H 224.04762 Z m 416.20634,7.804651         152.27472,152.27472 H 640.25396 Z"
     style="fill:black;stroke-width:2.00099" />
  <g
     transform="matrix(21.571429,0,0,21.571429,256,384)">
    <path
       fill="green"
       d="M 1,1 H 9.442 L 22.585,14.102 14.101,22.586 1,9.481 Z" />
    <path
       fill="black"
       d="M 14.101,24 0,9.895 V 0 H 9.855 L 24,14.101 C 20.7,17.4 17.4,20.7 14.101,24 Z M 9.442,1 H 1 v 8.481 l 13.101,13.105 8.484,-8.484 C 18.204,9.734 13.823,5.367 9.442,1 Z M 7.74,4.204 c 0.975,0.976 0.975,2.56 0,3.536 -0.976,0.975 -2.56,0.975 -3.536,0 -0.976,-0.976 -0.976,-2.56 0,-3.536 0.976,-0.976 2.56,-0.976 3.536,0 z M 7.032,4.911 c 0.586,0.586 0.586,1.536 0,2.121 -0.585,0.586 -1.535,0.586 -2.121,0 -0.585,-0.585 -0.585,-1.535 0,-2.121 0.586,-0.585 1.536,-0.585 2.121,0 z" />
  </g>
</svg>
