<svg width="24" height="24">
  <g id="Layer_1">
    <path d="M5.219,1.344 L22.5,11.719 L18.844,18.406 L1.531,8.156" fill="green"/>
    <path d="M10.5,24 L3.5,24 C2.1,24 1,22.86 1,21.5 L1,9.86 C0.338,9.387 0,8.659 0,7.919 C0,7.543 0.089,7.169 0.289,6.79 C1.354,4.892 2.442,3.007 3.554,1.136 C4.016,0.399 4.765,0 5.599,0 C6.234,0 6.571,0.204 7.044,0.479 C7.706,0.865 16.044,5.831 19.556,7.92 C19.643,7.972 22.922,9.908 23.005,9.965 C23.668,10.455 24,11.162 24,11.899 C24,12.274 23.908,12.644 23.705,13.029 C22.641,14.928 21.552,16.813 20.44,18.684 C19.863,19.604 18.825,19.974 17.944,19.772 C17.552,20.006 12.118,23.522 11.692,23.74 C11.279,23.952 10.93,24 10.5,24 M3,13.237 L3,21.5 C3,21.774 3.221,22 3.5,22 L8.088,22 C6.368,19.094 4.671,16.173 3,13.237 M4.606,11.999 C4.659,12.091 10.287,21.796 10.332,21.858 C10.44,21.997 10.631,22.039 10.787,21.956 C10.951,21.864 15.868,18.705 15.868,18.705 C15.229,18.328 7.724,13.854 4.606,11.999 M5.265,2.17 C4.352,3.626 2.066,7.695 2.03,7.78 C1.96,7.951 2.022,8.146 2.179,8.244 C2.38,8.364 18.202,17.791 18.356,17.815 C18.507,17.837 18.653,17.77 18.733,17.641 C19.675,16.057 21.939,12.091 21.965,12.04 C22.034,11.868 21.972,11.673 21.815,11.575 C21.614,11.455 5.832,2.076 5.725,2.029 C5.545,1.955 5.36,2.027 5.265,2.17 M6.822,4.865 C7.926,4.865 8.822,5.762 8.822,6.865 C8.822,7.969 7.926,8.865 6.822,8.865 C5.718,8.865 4.822,7.969 4.822,6.865 C4.822,5.762 5.718,4.865 6.822,4.865" fill="black"/>
    <path d="M3.906,10.781 L16.875,18.969 L10.594,22.75" fill="green"/>
    <path d="M3.031,12.656 L8.75,22.094 L2.594,22.125" fill="green"/>
  </g>
</svg>
