<svg width="24" height="24">
  <g id="Layer_1">
    <path d="M11.5,-0.5 L0.5,5.5 L0.5,17.631 L11.5,23.5 L22.5,17.5 L22.5,5.5 z" fill="green"/>
    <path d="M11.5,-0.5 L0.5,5.5 L0.5,17.631 L11.5,23.5 L22.5,17.631 L22.5,5.565 L11.5,-0.5 z M19.41,6.146 L11.505,10.364 L3.633,6.07 L11.495,1.781 L19.41,6.146 z M2.5,7.73 L10.5,12.093 L10.5,20.7 L2.5,16.432 L2.5,7.73 z M12.5,20.7 L12.5,12.1 L20.5,7.831 L20.5,16.431 L12.5,20.7 z" fill="black"/>
    <path d="M11.667,0 L0.667,6 L0.667,18.131 L11.667,24 L22.667,18.131 L22.667,6.065 L11.667,0 z M20.667,11.623 L17.667,13.192 L17.667,9.932 L20.667,8.331 L20.667,11.623 z M7.667,10.969 L10.667,12.594 L10.667,15.78 L7.667,14.166 L7.667,10.969 z M8.567,9.17 L11.553,7.567 L14.685,9.255 L11.671,10.863 L8.567,9.17 z M12.667,12.6 L15.667,11 L15.667,14.238 L12.667,15.807 L12.667,12.6 z M16.805,8.125 L13.666,6.434 L16.467,4.931 L19.577,6.646 L16.805,8.125 z M14.381,3.78 L11.556,5.297 L8.828,3.827 L11.662,2.281 L14.381,3.78 z M6.732,4.97 L9.443,6.43 L6.47,8.026 L3.8,6.57 L6.732,4.97 z M5.667,9.878 L5.667,13.082 L2.667,11.446 L2.667,8.23 L5.667,9.878 z M2.667,13.721 L5.667,15.357 L5.667,18.542 L2.667,16.931 L2.667,13.721 z M7.667,19.609 L7.667,16.44 L10.667,18.054 L10.667,21.2 L7.667,19.609 z M12.667,18.064 L15.667,16.495 L15.667,19.599 L12.667,21.2 L12.667,18.064 z M17.667,18.532 L17.667,15.449 L20.667,13.88 L20.667,16.931 L17.667,18.532 z" fill="black" stroke-width="1.5" id="iconmonstr-cube-11"/>
  </g>
</svg>
