<?xml version="1.0" encoding="UTF-8" standalone="no"?>
<svg viewBox="0 0 1024 1024" width="1024" height="1024">
  <path
     d="M 224.04762,0 C 171.02132,0 128,43.021329 128,96.047619 V         928.46032 c 0,53.02628 43.02132,96.04758 96.04762,96.04758 h         576.28571 c 53.0263,0 96.04762,-43.0213 96.04762,-96.04758 V         263.93163 c 0,-25.4126 -10.20428,-50.02558 -28.21321,-67.83441         L 700.28373,28.213206 C 682.2748,10.204279 657.86192,0         632.44932,0 Z m 0,96.047619 H 544.20635 V 304.15079 c         0,26.61319 21.41062,48.02381 48.02381,48.02381 H 800.33333 V         928.46032 H 224.04762 Z m 416.20634,7.804651         152.27472,152.27472 H 640.25396 Z"
     style="fill:black;stroke-width:2.00099" />
  <g
     transform="matrix(21.2138,0,0,21.2138,263.8931,394.1069)">
    <path
       fill="green"
       d="m 11.5,-0.5 -11,6 v 12.131 l 11,5.869 11,-6 v -12 z" />
    <path
       fill="black"
       d="m 11.5,-0.5 -11,6 v 12.131 l 11,5.869 11,-5.869 V 5.565 Z M 19.41,6.146 11.505,10.364 3.633,6.07 11.495,1.781 Z M 2.5,7.73 l 8,4.363 V 20.7 l -8,-4.268 z m 10,12.97 v -8.6 l 8,-4.269 v 8.6 z" />
    <path
       stroke-width="1.5"
       fill="black"
       d="m 11.667,0 -11,6 v 12.131 l 11,5.869 11,-5.869 V 6.065 Z m 9,11.623 -3,1.569 v -3.26 l 3,-1.601 z m -13,-0.654 3,1.625 v 3.186 l -3,-1.614 z m 0.9,-1.799 2.986,-1.603 3.132,1.688 -3.014,1.608 z m 4.1,3.43 3,-1.6 v 3.238 l -3,1.569 z m 4.138,-4.475 -3.139,-1.691 2.801,-1.503 3.11,1.715 z M 14.381,3.78 11.556,5.297 8.828,3.827 11.662,2.281 Z M 6.732,4.97 9.443,6.43 6.47,8.026 3.8,6.57 Z M 5.667,9.878 v 3.204 l -3,-1.636 V 8.23 Z m -3,3.843 3,1.636 v 3.185 l -3,-1.611 z m 5,5.888 V 16.44 l 3,1.614 V 21.2 Z m 5,-1.545 3,-1.569 v 3.104 l -3,1.601 z m 5,0.468 v -3.083 l 3,-1.569 v 3.051 z" />
  </g>
</svg>
