<svg xmlns="http://www.w3.org/2000/svg" xmlns:xlink="http://www.w3.org/1999/xlink" version="1.1" x="0px" y="0px" viewBox="0 0 504.858 576.31">
<g>
<path style="fill:green;stroke:black;stroke-width:20.;stroke-linecap:round;stroke-linejoin:round;stroke-miterlimit:10;" d="M146.679,64.902c91.282,1.057,164.95,75.379,164.981,166.917c-0.013,33.838-10.092,65.315-27.395,91.615   l1.563,2.704l18.516,32.075h200.515V0H146.679V64.902z"/>
<path style="fill:green;stroke:black;stroke-width:20.;stroke-linecap:round;stroke-linejoin:round;stroke-miterlimit:10;" d="M0,231.818c0.094,57.947,34.108,107.846,83.265,130.974l21.174-36.687l81.076-140.415l9.601-16.623   l76.448,132.372c11.368-20.648,17.858-44.369,17.902-69.621c-0.14-79.927-64.811-144.587-144.716-144.727   C64.8,87.231,0.13,151.892,0,231.818z"/>
<polygon style="fill:green;stroke:black;stroke-width:20.;stroke-linecap:round;stroke-linejoin:round;stroke-miterlimit:10;" points="266.614,337.245 195.126,213.451 123.664,337.212 52.187,461.048 195.138,461.048 338.079,461.015     "/>
</g>
</svg>
