<svg height="1024" width="1024" viewBox="0 0 1024 1024">
  <path
     style="fill:black;stroke-width:2.00099"
     d="M 224.04762,0 C 171.02132,0 128,43.021329 128,96.047619 V
        928.46032 c 0,53.02628 43.02132,96.04758 96.04762,96.04758 h
        576.28571 c 53.0263,0 96.04762,-43.0213 96.04762,-96.04758 V
        263.93163 c 0,-25.4126 -10.20428,-50.02558 -28.21321,-67.83441
        L 700.28373,28.213206 C 682.2748,10.204279 657.86192,0
        632.44932,0 Z m 0,96.047619 H 544.20635 V 304.15079 c
        0,26.61319 21.41062,48.02381 48.02381,48.02381 H 800.33333 V
        928.46032 H 224.04762 Z m 416.20634,7.804651
        152.27472,152.27472 H 640.25396 Z"/>
<g transform="translate(256 384)">
<path style="fill:green;stroke:black;stroke-width:20.;stroke-linecap:round;stroke-linejoin:round;stroke-miterlimit:10;" d="M146.679,64.902c91.282,1.057,164.95,75.379,164.981,166.917c-0.013,33.838-10.092,65.315-27.395,91.615   l1.563,2.704l18.516,32.075h200.515V0H146.679V64.902z"/>
<path style="fill:green;stroke:black;stroke-width:20.;stroke-linecap:round;stroke-linejoin:round;stroke-miterlimit:10;" d="M0,231.818c0.094,57.947,34.108,107.846,83.265,130.974l21.174-36.687l81.076-140.415l9.601-16.623   l76.448,132.372c11.368-20.648,17.858-44.369,17.902-69.621c-0.14-79.927-64.811-144.587-144.716-144.727   C64.8,87.231,0.13,151.892,0,231.818z"/>
<polygon style="fill:green;stroke:black;stroke-width:20.;stroke-linecap:round;stroke-linejoin:round;stroke-miterlimit:10;" points="266.614,337.245 195.126,213.451 123.664,337.212 52.187,461.048 195.138,461.048 338.079,461.015     "/>
</g>
</svg>
