<?xml version="1.0" encoding="UTF-8" standalone="no"?>
<!-- Created with Inkscape (http://www.inkscape.org/) -->

<svg
   width="32"
   height="32"
   viewBox="0 0 8.4666666 8.4666666"
   version="1.1"
   id="svg5"
   inkscape:version="1.2.2 (b0a8486541, 2022-12-01)"
   sodipodi:docname="mode-connection-stroke.svg"
   xmlns:inkscape="http://www.inkscape.org/namespaces/inkscape"
   xmlns:sodipodi="http://sodipodi.sourceforge.net/DTD/sodipodi-0.dtd"
   xmlns="http://www.w3.org/2000/svg"
   xmlns:svg="http://www.w3.org/2000/svg">
  <sodipodi:namedview
     id="namedview7"
     pagecolor="#ffffff"
     bordercolor="#666666"
     borderopacity="1.0"
     inkscape:showpageshadow="2"
     inkscape:pageopacity="0.0"
     inkscape:pagecheckerboard="0"
     inkscape:deskcolor="#d1d1d1"
     inkscape:document-units="mm"
     showgrid="false"
     inkscape:zoom="20.70196"
     inkscape:cx="-1.594052"
     inkscape:cy="12.100304"
     inkscape:window-width="2880"
     inkscape:window-height="1620"
     inkscape:window-x="0"
     inkscape:window-y="40"
     inkscape:window-maximized="0"
     inkscape:current-layer="path297" />
  <defs
     id="defs2" />
  <g
     inkscape:label="Layer 1"
     inkscape:groupmode="layer"
     id="layer1">
    <g
       id="path297">
      <path
         style="color:#000000;fill:#000000;-inkscape-stroke:none"
         d="m 3.0622396,2.109375 v 0.5 h 1.1916666 c 0.6355003,0 1.1966348,-0.030931 1.5371094,0.050781 0.1702373,0.040856 0.2743611,0.1002698 0.34375,0.1855468 0.069389,0.085277 0.1191406,0.2154702 0.1191406,0.4511719 0,0.2452146 -0.042898,0.3874341 -0.097656,0.46875 -0.054758,0.081316 -0.127239,0.1289422 -0.2773438,0.1679688 -0.3002095,0.078053 -0.86625,0.050781 -1.625,0.050781 -0.6117168,0 -1.1746283,-0.058801 -1.6484374,0.048828 C 2.3685642,4.0870177 2.1438959,4.1923052 1.9863281,4.3886719 1.8287604,4.5850386 1.7539062,4.8510361 1.7539062,5.171875 c 0,0.3208389 0.074854,0.5848833 0.2324219,0.78125 0.1575678,0.1963667 0.3822361,0.3036073 0.6191407,0.3574219 0.4738091,0.1076292 1.0367206,0.048828 1.6484374,0.048828 h 1.1916667 v -0.5 H 4.2539062 c -0.6382819,0 -1.1984193,0.039827 -1.5371093,-0.037109 C 2.5474518,5.7837977 2.4439945,5.7266085 2.375,5.640625 2.3060055,5.5546415 2.2539063,5.4194048 2.2539063,5.171875 c 0,-0.2475298 0.052099,-0.3847196 0.1210937,-0.4707031 0.068995,-0.085984 0.1724518,-0.1431727 0.3417969,-0.1816407 0.33869,-0.076936 0.8988274,-0.035156 1.5371093,-0.035156 0.7412486,0 1.3021635,0.050537 1.7519532,-0.066406 C 6.2307542,4.3594971 6.4395237,4.2420445 6.5722656,4.0449219 6.7050075,3.8477993 6.7539062,3.5991664 6.7539062,3.296875 6.7539062,2.9850707 6.6806108,2.7244114 6.5234375,2.53125 6.3662642,2.3380886 6.1422623,2.2304701 5.90625,2.1738281 5.4342254,2.0605441 4.8684048,2.109375 4.2539062,2.109375 Z"
         id="path2106"
         sodipodi:nodetypes="ccsssssssssssssccsssssssssssssc" />
      <g
         id="g2092">
        <path
           style="color:#000000;fill:#000000;fill-rule:evenodd;-inkscape-stroke:none"
           d="m 6.5039062,4.984375 c -0.609953,0 -1.125,0.503334 -1.125,1.125 0,0.6189487 0.5060514,1.125 1.125,1.125 0.6189487,0 1.1250001,-0.5060513 1.125,-1.125 0,-0.6189487 -0.5060513,-1.125 -1.125,-1.125 z m 0,0.375 c 0.4160504,0 0.75,0.3339497 0.75,0.75 0,0.4160503 -0.3339496,0.75 -0.75,0.75 -0.4160503,0 -0.7499999,-0.3339497 -0.75,-0.75 0,-0.4133329 0.3474542,-0.75 0.75,-0.75 z"
           id="path2116" />
        <path
           style="color:#000000;fill:#000000;fill-rule:evenodd;-inkscape-stroke:none"
           d="m 2.0039063,1.234375 c -0.6099531,0 -1.12500005,0.503334 -1.12500005,1.125 0,0.6189487 0.50605135,1.125 1.12500005,1.125 0.6189486,0 1.1249999,-0.5060513 1.125,-1.125 0,-0.6189487 -0.5060514,-1.125 -1.125,-1.125 z m 0,0.375 c 0.4160503,0 0.75,0.3339497 0.75,0.75 0,0.4160503 -0.3339497,0.75 -0.75,0.75 -0.4160504,0 -0.75,-0.3339497 -0.7500001,-0.75 0,-0.4133329 0.3474542,-0.75 0.7500001,-0.75 z"
           id="path2113" />
      </g>
    </g>
  </g>
</svg>
