<?xml version="1.0" encoding="UTF-8" standalone="no"?>
<svg viewBox="0 0 512 512">
  <path
      style="fill:black"
      d="M 48 0 C 21.5 0 0 21.5 0 48 L 0 464 C 0 490.5 21.5 512 48 512 L 336 512 C 362.5 512 384 490.5 384 464 L 384 131.90039 C 384 119.20039 378.90039 106.9 369.90039 98 L 286 14.099609 C 277 5.0996098 264.79961 -1.1842379e-15 252.09961 0 L 48 0 z M 48 48 L 208 48 L 208 152 C 208 165.3 218.7 176 232 176 L 336 176 L 336 464 L 48 464 L 48 48 z M 256 51.900391 L 332.09961 128 L 256 128 L 256 51.900391 z " />
  <path
     style="fill:green"
     d="M 276,320 H 108 c -6.6,0 -12,5.4 -12,12 v 28 c 0,6.6 5.4,12 12,12 h 168 c 6.6,0 12,-5.4 12,-12 v -28 c 0,-6.6 -5.4,-12 -12,-12 z" />
  <path
     style="fill:green"
     d="m 288,248 v 28 c 0,6.6 -5.4,12 -12,12 H 108 c -6.6,0 -12,-5.4 -12,-12 v -28 c 0,-6.6 5.4,-12 12,-12 h 168 c 6.6,0 12,5.4 12,12 z" />
</svg>
