<svg width="24" height="24">
  <g id="Layer_1">
    <path d="M12.062,0 L1.062,6 L1.062,18.131 L12.062,24 L23.062,18.131 L23.062,6.065 L12.062,0 z M19.972,6.646 L12.068,10.864 L4.195,6.57 L12.057,2.281 L19.972,6.646 z M3.062,8.23 L11.062,12.593 L11.062,21.2 L3.062,16.932 L3.062,8.23 z M13.062,21.2 L13.062,12.6 L21.062,8.331 L21.062,16.931 L13.062,21.2 z" fill="black"/>
    <path d="M12.062,14.833 C10.498,14.833 9.229,13.565 9.229,12 C9.229,10.435 10.498,9.167 12.062,9.167 C13.627,9.167 14.896,10.435 14.896,12 C14.896,13.565 13.627,14.833 12.062,14.833 z" fill="green"/>
  </g>
</svg>
