<?xml version="1.0" encoding="UTF-8" standalone="no"?>
<!-- Created with Inkscape (http://www.inkscape.org/) -->

<svg
   width="13mm"
   height="13mm"
   viewBox="0 0 13 13"
   version="1.1"
   id="svg1"
   xml:space="preserve"
   inkscape:version="1.4 (e7c3feb100, 2024-10-09)"
   sodipodi:docname="zoom-selected.svg"
   xmlns:inkscape="http://www.inkscape.org/namespaces/inkscape"
   xmlns:sodipodi="http://sodipodi.sourceforge.net/DTD/sodipodi-0.dtd"
   xmlns="http://www.w3.org/2000/svg"
   xmlns:svg="http://www.w3.org/2000/svg"><sodipodi:namedview
     id="namedview1"
     pagecolor="#ffffff"
     bordercolor="#000000"
     borderopacity="0.25"
     inkscape:showpageshadow="2"
     inkscape:pageopacity="0.0"
     inkscape:pagecheckerboard="0"
     inkscape:deskcolor="#d1d1d1"
     inkscape:document-units="mm"
     inkscape:zoom="12.514702"
     inkscape:cx="25.849597"
     inkscape:cy="29.165696"
     inkscape:window-width="1920"
     inkscape:window-height="1131"
     inkscape:window-x="0"
     inkscape:window-y="0"
     inkscape:window-maximized="1"
     inkscape:current-layer="layer1" /><defs
     id="defs1" /><g
     inkscape:label="Layer 1"
     inkscape:groupmode="layer"
     id="layer1"
     transform="translate(-55,-44.441668)"><path
       id="rect7"
       style="fill:#1a1a1a;stroke:none;stroke-width:0.499999;stroke-linejoin:round"
       d="M 66.500073 47.035825 L 66.500073 45.941835 L 65.39058 45.941835 L 63.334892 47.997523 L 62.606771 47.269402 L 62.234184 50.157081 L 65.121863 49.783978 L 64.436633 49.098748 L 66.500073 47.035825 z " /><rect
       style="fill:none;stroke:#000000;stroke-width:0.499999;stroke-linejoin:round;stroke-opacity:1"
       id="rect1"
       width="10"
       height="10"
       x="56.5"
       y="45.941669" /><path
       id="path3"
       style="fill:#1a1a1a;stroke:none;stroke-width:0.499999;stroke-linejoin:round"
       d="M 56.500167 54.789357 L 56.500167 55.941741 L 57.551265 55.941741 L 59.585767 53.90724 L 60.313371 54.634844 L 60.686475 51.747682 L 57.798796 52.120269 L 58.484025 52.805499 L 56.500167 54.789357 z " /><path
       id="path9"
       style="fill:#1a1a1a;stroke:none;stroke-width:0.499999;stroke-linejoin:round"
       d="M 57.530078 45.941835 L 56.500167 45.941835 L 56.500167 47.115407 L 58.484025 49.098748 L 57.798796 49.783978 L 60.686475 50.157081 L 60.313371 47.269402 L 59.585767 47.997523 L 57.530078 45.941835 z " /><path
       id="path2"
       style="fill:#1a1a1a;stroke:none;stroke-width:0.499999;stroke-linejoin:round"
       d="M 65.369393 55.941741 L 66.500073 55.941741 L 66.500073 54.868939 L 64.436633 52.805499 L 65.121863 52.120269 L 62.234184 51.747682 L 62.606771 54.634844 L 63.334892 53.90724 L 65.369393 55.941741 z " /><circle
       style="fill:#1a1a1a;stroke-width:0.499999;stroke-linejoin:round"
       id="path1"
       cx="61.5"
       cy="50.941669"
       r="0.67653757" /></g></svg>
