<?xml version="1.0" encoding="UTF-8"?>
<svg data-name="Layer 1" version="1.1" viewBox="0 0 64 64" xmlns="http://www.w3.org/2000/svg" xmlns:cc="http://creativecommons.org/ns#" xmlns:dc="http://purl.org/dc/elements/1.1/" xmlns:rdf="http://www.w3.org/1999/02/22-rdf-syntax-ns#">
 <title>SVG_Artboards</title>
 <g transform="matrix(1 0 0 .69047 0 16.866)">
  <g transform="translate(0 -2.8966)">
   <rect transform="rotate(90)" x="25.52" y="-56.55" width="28.97" height="49.1" fill="#a7d28c" stroke="#6f6f59" stroke-linecap="round" stroke-linejoin="round" stroke-width="2.2536px"/>
  </g>
  <rect x="8.56" y="23.723" width="2.96" height="26.71" fill="#603c89"/>
  <rect x="11.52" y="23.723" width="2.96" height="26.71" fill="#46449b"/>
  <rect x="14.42" y="23.723" width="2.96" height="26.71" fill="#2a5aa8"/>
  <rect x="17.38" y="23.723" width="2.96" height="26.71" fill="#0c71b8"/>
  <rect x="20.36" y="23.723" width="2.96" height="26.71" fill="#0d7fc2"/>
  <rect x="23.32" y="23.723" width="2.96" height="26.71" fill="#198ece"/>
  <rect x="26.22" y="23.723" width="2.96" height="26.71" fill="#25a1db"/>
  <rect x="29.18" y="23.723" width="2.96" height="26.71" fill="#12b2d2"/>
  <rect x="32.19" y="23.723" width="2.96" height="26.71" fill="#4bb88e"/>
  <rect transform="rotate(90)" x="23.723" y="-38.05" width="26.71" height="2.96" fill="#98c37e"/>
  <rect transform="rotate(90)" x="23.723" y="-41.01" width="26.71" height="2.96" fill="#a4c661"/>
  <rect transform="rotate(90)" x="23.723" y="-43.91" width="26.71" height="2.96" fill="#c6c835"/>
  <rect transform="rotate(90)" x="23.723" y="-46.87" width="26.71" height="2.96" fill="#e8c61d"/>
  <rect transform="rotate(90)" x="23.723" y="-49.85" width="26.71" height="2.96" fill="#e2ae27"/>
  <rect transform="rotate(90)" x="23.723" y="-52.81" width="26.71" height="2.96" fill="#dc9a2a"/>
  <rect transform="rotate(90)" x="23.723" y="-55.71" width="26.71" height="2.96" fill="#c58338"/>
  <g stroke="#6f6f59" stroke-linejoin="round" stroke-width="1.8052">
   <path d="m7.2258-6.3423v20.28h13.293v-20.28h-12.915z" fill="#87aade"/>
   <path d="m25.354-6.3423v20.28h13.293v-20.28h-12.915z" fill="#68ad57"/>
   <path d="m43.481-6.3423v20.28h13.293v-20.28h-12.915z" fill="#b48a48"/>
  </g>
 </g>
 <metadata>
  <rdf:RDF>
   <cc:Work rdf:about="">
    <dc:title>SVG_Artboards</dc:title>
   </cc:Work>
  </rdf:RDF>
 </metadata>
</svg>
